<?xml version="1.0" standalone="no"?>
<!DOCTYPE svg PUBLIC "-//W3C//DTD SVG 20010904//EN"
 "http://www.w3.org/TR/2001/REC-SVG-20010904/DTD/svg10.dtd">
<svg version="1.0" xmlns="http://www.w3.org/2000/svg"
 width="1200.000000pt" height="1336.000000pt" viewBox="0 0 1200.000000 1336.000000"
 preserveAspectRatio="xMidYMid meet">

<g transform="translate(0.000000,1336.000000) scale(0.100000,-0.100000)"
fill="#000000" stroke="none">
<path d="M0 10648 c0 -1491 2 -2709 4 -2707 8 8 838 1067 1051 1340 544 700
926 1192 1145 1474 145 187 325 419 400 515 162 209 309 399 405 525 39 50 98
127 132 171 71 90 256 330 371 479 42 55 104 134 137 176 56 72 114 146 345
444 52 68 125 162 162 209 l68 86 -2110 0 -2110 0 0 -2712z"/>
<path d="M6451 13337 c14 -12 54 -44 88 -72 35 -27 107 -86 161 -130 54 -44
135 -110 181 -146 104 -83 518 -417 578 -467 24 -20 68 -55 97 -77 122 -94
294 -237 294 -245 0 -14 71 -75 83 -72 7 2 9 0 5 -4 -5 -4 3 -21 15 -38 13
-17 30 -46 38 -64 8 -18 23 -35 33 -38 11 -4 40 -26 65 -50 48 -46 56 -50 66
-34 3 6 3 10 -2 10 -4 0 -21 12 -38 26 -16 14 -35 29 -41 32 -5 4 -26 27 -45
52 -18 25 -36 47 -39 50 -3 3 -12 14 -20 25 -21 28 30 -9 155 -110 392 -318
1055 -851 1610 -1295 187 -149 423 -338 525 -420 175 -141 714 -571 1158 -923
144 -115 202 -167 202 -181 0 -16 2 -18 9 -7 7 11 19 6 57 -26 79 -65 288
-229 302 -237 9 -6 12 443 12 2228 l0 2236 -2787 0 -2788 -1 26 -22z"/>
<path d="M6233 12983 c9 -2 25 -2 35 0 9 3 1 5 -18 5 -19 0 -27 -2 -17 -5z"/>
<path d="M8312 11748 c5 -15 28 -23 28 -10 0 5 -7 13 -16 16 -10 4 -14 1 -12
-6z"/>
<path d="M5830 10859 c-19 -4 -42 -6 -52 -3 -9 3 -19 0 -23 -6 -5 -8 -11 -8
-20 0 -8 7 -20 8 -26 4 -7 -4 -46 -8 -88 -8 -42 -1 -81 -5 -88 -9 -6 -4 -18
-4 -27 -1 -8 3 -25 -1 -37 -9 -21 -15 -48 -12 -61 7 -4 6 -12 5 -23 -4 -11 -9
-19 -10 -23 -4 -4 6 -16 14 -27 18 -15 5 -28 -3 -60 -39 -39 -43 -43 -45 -70
-35 -24 9 -31 7 -51 -11 -12 -11 -28 -18 -34 -14 -6 4 -22 -3 -35 -15 -16 -15
-25 -18 -30 -10 -5 8 -12 6 -25 -5 -10 -9 -24 -14 -30 -10 -6 4 -17 2 -25 -5
-10 -8 -15 -8 -20 0 -5 8 -15 4 -31 -11 -13 -12 -30 -19 -38 -16 -9 4 -18 1
-22 -4 -3 -6 -14 -9 -24 -6 -11 3 -28 -5 -41 -19 -13 -14 -28 -23 -33 -21 -6
2 -23 -4 -38 -15 -16 -11 -32 -16 -38 -13 -5 3 -16 3 -22 -1 -7 -5 -21 -9 -30
-9 -10 -1 -26 -10 -37 -19 -11 -10 -24 -15 -29 -12 -5 3 -18 -3 -30 -14 -11
-11 -27 -17 -35 -15 -7 3 -22 -3 -32 -15 -18 -20 -41 -28 -30 -10 14 23 -12 7
-52 -32 -24 -23 -43 -37 -43 -31 0 6 6 14 13 16 6 3 7 6 1 6 -5 1 -20 -8 -32
-20 -12 -11 -27 -17 -33 -13 -6 3 -28 -10 -48 -30 -22 -22 -44 -34 -52 -31 -9
3 -25 -6 -38 -21 -16 -18 -25 -23 -30 -15 -5 8 -19 -1 -43 -27 -36 -40 -67
-65 -54 -44 19 31 -17 7 -57 -38 -41 -46 -68 -66 -51 -38 5 7 3 8 -5 4 -7 -5
-10 -14 -7 -22 3 -8 -3 -28 -13 -45 -11 -18 -17 -37 -14 -44 2 -7 -3 -28 -13
-46 -12 -24 -13 -34 -5 -37 9 -3 9 -8 0 -19 -10 -12 -10 -16 1 -23 11 -7 11
-12 -2 -32 -16 -25 -19 -73 -5 -95 4 -7 1 -23 -6 -35 -9 -13 -13 -42 -12 -68
2 -25 -1 -52 -6 -62 -11 -20 0 -80 13 -72 5 4 3 -7 -5 -22 -14 -30 -16 -71 -3
-92 4 -6 2 -20 -4 -31 -14 -27 -13 -51 1 -31 8 11 9 9 3 -10 -12 -43 -13 -144
-2 -151 8 -5 6 -15 -6 -33 -15 -24 -15 -28 0 -51 13 -20 14 -31 7 -48 -10 -23
-10 -133 0 -143 3 -3 2 -17 -4 -31 -12 -32 -11 -42 2 -23 8 11 9 9 3 -10 -3
-14 -10 -30 -15 -36 -5 -6 -6 -14 -2 -18 11 -11 13 -77 3 -96 -6 -11 -6 -30 0
-50 6 -21 6 -39 0 -51 -7 -12 -7 -20 0 -24 6 -3 7 -18 4 -33 -4 -22 -3 -24 6
-12 9 12 10 10 4 -10 -11 -36 -11 -83 0 -98 6 -8 5 -17 -2 -24 -6 -6 -8 -18
-3 -27 8 -17 7 -44 -3 -123 -3 -28 -2 -48 4 -48 6 0 6 -9 0 -26 -13 -32 -13
-37 1 -28 7 4 9 0 5 -14 -4 -11 -2 -23 4 -27 6 -4 5 -16 -6 -36 -14 -28 -14
-33 1 -55 9 -14 12 -30 8 -37 -10 -15 -11 -197 -2 -197 4 0 4 -13 -1 -29 -4
-16 -4 -47 0 -68 6 -23 5 -42 0 -47 -16 -16 -11 -30 5 -16 13 11 13 8 3 -21
-8 -25 -8 -34 0 -37 8 -2 7 -10 -3 -25 -16 -25 -15 -48 4 -71 10 -12 10 -19
-3 -37 -11 -17 -13 -26 -5 -36 6 -7 9 -19 6 -27 -4 -11 -1 -13 10 -9 13 5 13
2 -2 -20 -9 -15 -15 -34 -11 -42 3 -8 1 -26 -4 -40 -8 -20 -6 -23 7 -18 13 5
14 3 4 -15 -7 -14 -8 -23 -1 -27 6 -3 7 -17 4 -31 -4 -16 -2 -24 6 -24 8 0 9
-4 3 -12 -19 -25 -23 -47 -7 -41 10 4 12 0 8 -11 -3 -9 -1 -23 6 -31 9 -10 9
-15 1 -15 -6 0 -11 -7 -11 -15 0 -8 5 -15 11 -15 6 0 8 -9 4 -21 -5 -15 -1
-25 16 -37 33 -24 62 -35 53 -20 -5 8 -2 9 12 4 17 -8 67 -15 119 -20 11 0 25
-5 32 -9 6 -4 15 -3 18 3 4 6 15 8 25 5 10 -3 21 -1 24 4 4 6 16 4 33 -4 18
-9 32 -11 44 -4 23 12 32 12 24 -1 -8 -14 75 -1 94 14 11 8 13 8 8 -1 -4 -6
-3 -14 3 -18 5 -3 10 -1 10 4 0 16 26 13 44 -5 9 -8 21 -12 28 -8 15 9 60 10
75 1 6 -4 16 0 23 8 9 11 16 12 25 5 9 -8 15 -8 20 0 8 13 35 13 35 -1 0 -11
-66 -96 -102 -132 -16 -16 -18 -16 -18 -1 0 26 -17 7 -163 -170 -167 -204
-155 -190 -219 -266 -106 -127 -125 -159 -92 -146 13 5 14 3 7 -6 -6 -7 -38
-48 -72 -91 -63 -80 -69 -93 -50 -99 6 -2 -8 -27 -31 -56 -27 -33 -39 -58 -36
-69 4 -11 -7 -34 -29 -62 -23 -29 -33 -51 -30 -62 4 -12 -4 -32 -19 -52 -30
-40 -32 -49 -9 -40 12 5 5 -10 -20 -45 -34 -48 -54 -101 -22 -58 26 35 16 3
-12 -37 -21 -30 -24 -40 -14 -47 10 -6 8 -15 -10 -40 -17 -23 -20 -34 -12 -37
9 -3 5 -16 -12 -44 -29 -44 -32 -57 -10 -39 21 18 19 3 -5 -30 -13 -18 -17
-31 -10 -35 7 -4 4 -17 -7 -36 -14 -23 -15 -32 -5 -38 10 -6 7 -14 -9 -35 -17
-21 -19 -30 -9 -36 9 -6 8 -13 -5 -34 -13 -19 -15 -30 -7 -38 7 -7 7 -16 -1
-31 -9 -15 -9 -21 0 -24 9 -3 8 -11 -5 -30 -12 -20 -13 -28 -4 -31 8 -2 9 -9
3 -20 -5 -10 -9 -28 -8 -42 0 -14 -4 -34 -8 -44 -6 -15 -5 -17 5 -11 10 6 12
4 5 -11 -12 -29 -15 -104 -4 -104 5 0 4 -9 -3 -20 -11 -17 -10 -22 1 -30 13
-7 13 -11 1 -25 -11 -13 -11 -18 -1 -24 10 -7 10 -13 2 -29 -14 -26 -14 -35
-1 -27 7 4 7 -3 0 -20 -13 -34 -13 -35 7 -28 16 6 16 5 0 -17 -21 -30 -22 -44
-2 -37 11 5 12 1 5 -19 -13 -32 -12 -37 1 -28 8 5 8 1 0 -14 -14 -26 -14 -45
-1 -37 13 8 13 -1 0 -25 -7 -13 -7 -21 0 -25 6 -4 8 -15 5 -26 -5 -14 -2 -17
9 -13 11 4 13 0 9 -14 -2 -11 0 -23 7 -27 8 -5 8 -10 0 -20 -8 -9 -8 -15 0
-20 5 -3 7 -17 4 -31 -4 -14 -2 -24 5 -24 6 0 8 -7 5 -15 -4 -8 1 -26 10 -40
9 -14 14 -30 11 -36 -4 -5 -1 -16 5 -24 6 -8 9 -19 5 -25 -4 -6 -1 -17 5 -25
6 -8 8 -20 4 -26 -4 -7 -3 -9 3 -6 12 8 25 -46 17 -68 -4 -8 -1 -15 5 -15 6 0
11 -7 11 -15 0 -8 4 -15 9 -15 5 0 7 -9 4 -20 -3 -11 0 -20 6 -20 6 0 11 -6
11 -14 0 -8 5 -27 12 -43 6 -15 10 -32 9 -36 -1 -5 8 -22 20 -39 15 -21 18
-32 10 -37 -7 -5 -3 -15 14 -31 14 -13 24 -29 21 -36 -2 -6 9 -28 25 -48 17
-20 28 -40 25 -45 -4 -5 -1 -16 6 -23 57 -62 63 -71 43 -64 -12 4 -1 -13 28
-42 33 -34 45 -52 37 -57 -8 -5 2 -21 31 -51 24 -24 37 -44 30 -44 -7 0 18
-32 55 -71 38 -39 69 -76 69 -82 0 -7 4 -18 8 -24 7 -12 231 -209 377 -333
106 -90 163 -130 145 -100 -12 20 7 9 69 -40 35 -28 69 -50 75 -50 6 0 11 -4
11 -10 0 -5 7 -7 15 -4 8 3 32 -8 54 -25 21 -17 45 -29 53 -26 8 3 36 -10 63
-30 30 -21 53 -31 59 -25 5 5 20 1 36 -12 16 -11 33 -17 39 -14 11 7 73 -22
79 -36 2 -5 8 -8 13 -8 6 0 7 5 3 12 -4 7 9 2 31 -10 21 -13 44 -21 52 -18 8
3 25 -1 38 -10 13 -9 29 -13 34 -9 6 3 21 0 33 -6 13 -7 43 -13 68 -14 25 0
54 -6 65 -12 11 -6 39 -10 62 -8 27 1 40 -1 36 -8 -3 -6 -1 -7 6 -3 6 4 19 2
27 -5 13 -10 17 -10 24 1 7 11 11 12 25 0 12 -10 19 -10 27 -2 8 8 17 8 32 0
26 -15 85 -18 92 -6 3 5 12 4 20 -3 10 -8 18 -8 27 0 10 8 17 7 26 -2 9 -9 14
-9 21 2 7 12 11 12 24 2 9 -8 16 -10 16 -6 0 4 6 3 13 -3 8 -7 18 -7 27 -2 9
6 17 5 21 -2 4 -6 16 -4 35 8 15 11 25 14 21 7 -4 -6 -3 -14 3 -18 5 -3 10 -2
10 4 0 6 20 9 48 7 26 -2 53 2 61 8 11 8 15 8 18 -2 4 -9 12 -7 33 8 19 14 31
17 35 10 5 -8 13 -6 24 4 13 12 20 13 29 4 8 -8 15 -8 26 1 10 9 16 9 21 1 5
-8 11 -8 21 0 7 7 19 10 26 7 7 -2 25 4 40 14 26 19 26 19 21 -3 l-6 -23 26
24 c14 12 31 20 37 16 6 -4 17 -2 24 4 7 6 21 8 30 5 11 -4 26 2 40 15 16 15
26 19 31 11 5 -8 10 -8 20 0 8 7 23 9 33 6 12 -4 25 1 37 14 12 14 22 17 30
10 8 -7 19 -2 35 15 17 18 27 22 36 14 10 -8 19 -5 35 10 13 12 30 19 39 16 9
-3 25 4 35 15 10 11 23 20 29 20 6 0 4 -4 -4 -10 -8 -5 -11 -12 -7 -16 4 -4
23 7 41 25 20 19 39 30 46 26 7 -4 24 4 40 20 19 18 30 23 35 15 5 -8 16 -3
37 17 22 21 31 25 37 15 6 -10 17 -4 42 22 22 24 39 34 51 30 12 -3 28 6 49
31 23 26 35 33 44 25 9 -8 24 1 56 35 27 28 49 43 59 40 10 -3 34 14 65 45 30
31 52 46 56 39 4 -7 33 16 75 60 49 53 70 68 76 59 6 -9 7 -6 3 8 -4 14 0 24
9 27 11 4 13 1 10 -11 -8 -24 90 79 245 258 73 85 146 169 160 185 95 107 141
167 135 177 -4 7 -9 6 -15 -3 -4 -7 -10 -11 -13 -8 -3 3 19 33 48 66 80 92
124 159 81 123 -30 -25 -13 7 35 65 47 57 58 84 30 77 -7 -2 6 20 30 48 23 27
37 50 31 50 -18 0 -13 21 14 56 26 34 32 54 15 54 -6 0 3 19 20 42 17 23 28
49 25 58 -3 9 4 29 16 44 17 22 19 30 9 36 -10 6 -9 14 7 36 36 52 38 58 18
51 -16 -7 -16 -5 -3 15 39 61 43 70 30 75 -9 3 -7 12 8 33 24 34 25 44 5 36
-14 -5 -13 -1 2 25 14 23 15 32 5 38 -10 6 -7 14 9 35 17 22 19 30 9 36 -10 6
-8 15 9 38 15 22 18 32 9 35 -10 3 -10 9 -1 24 8 15 8 24 1 31 -8 8 -6 18 6
37 12 19 14 30 7 39 -7 9 -7 16 1 24 8 8 8 15 -1 26 -10 12 -9 20 5 41 14 22
15 28 4 35 -12 7 -12 11 0 25 12 14 12 18 0 25 -11 7 -11 12 -2 23 7 7 9 17 5
21 -14 13 -10 81 5 105 16 23 15 23 -7 16 l-24 -7 21 30 c19 26 20 31 6 42
-11 10 -12 15 -3 21 10 6 10 11 0 23 -11 13 -11 19 -1 31 9 11 10 15 1 15 -7
0 -12 10 -11 23 1 12 1 24 0 27 -1 3 -3 25 -4 50 -1 25 -8 56 -16 70 -8 14
-13 31 -11 38 1 8 -3 20 -10 28 -8 10 -8 14 0 14 6 0 11 7 11 15 0 8 -5 15
-11 15 -6 0 -8 9 -4 21 5 13 2 25 -6 29 -10 7 -10 12 -1 23 9 11 8 18 -8 32
-14 12 -18 25 -14 41 4 16 2 24 -6 24 -8 0 -10 9 -6 24 3 14 1 28 -5 31 -6 4
-8 14 -4 23 3 8 -4 25 -16 38 -17 19 -19 26 -10 38 9 11 8 15 -4 20 -11 4 -14
13 -10 25 4 13 -1 26 -15 39 -12 11 -18 25 -14 35 3 9 -3 25 -15 39 -12 12
-19 28 -16 36 2 7 -4 23 -15 34 -11 12 -18 29 -15 38 3 10 -7 28 -25 45 -16
16 -30 34 -30 39 0 6 5 4 10 -4 7 -11 10 -12 10 -2 0 8 -14 27 -30 44 -17 16
-27 34 -24 40 3 5 -6 22 -21 38 -15 16 -24 33 -21 38 3 6 -15 33 -40 61 -25
28 -43 55 -39 60 3 6 -12 27 -35 47 -22 20 -37 40 -34 45 3 5 0 9 -5 9 -6 0
-10 5 -8 11 1 5 -29 39 -68 74 -49 46 -66 67 -58 73 14 9 -60 76 -322 289
-153 124 -266 205 -236 170 28 -35 -9 -15 -84 45 -48 38 -80 58 -83 50 -6 -18
-13 -15 -52 18 -36 31 -56 37 -62 20 -1 -5 -14 0 -28 10 -20 15 -22 22 -13 31
10 10 14 9 19 -5 6 -15 9 -15 27 5 14 15 22 18 25 10 3 -8 19 1 43 25 21 21
42 34 46 30 4 -4 1 -11 -7 -16 -8 -5 -12 -11 -9 -15 3 -3 18 7 33 22 22 22 29
24 36 13 7 -12 12 -12 22 -2 6 6 21 12 32 12 11 0 35 14 52 31 31 30 33 31 27
8 -5 -22 -3 -21 31 11 21 19 45 34 55 32 10 -1 24 4 31 13 14 17 35 21 25 5
-3 -5 -2 -10 4 -10 6 0 15 9 21 20 9 17 8 19 -7 13 -15 -6 -16 -4 -6 8 16 20
11 83 -8 106 -9 10 -14 24 -12 31 3 7 0 19 -7 27 -6 8 -9 19 -5 25 4 6 1 17
-5 25 -6 8 -9 19 -5 25 4 6 -1 23 -11 38 -10 15 -17 33 -15 41 1 7 -7 24 -19
36 -15 15 -18 25 -10 30 8 5 8 11 -1 21 -9 11 -9 17 0 28 9 11 9 16 -1 23 -17
11 -47 49 -30 39 19 -11 14 4 -13 40 -14 18 -22 39 -19 47 3 8 1 18 -5 22 -6
3 -8 17 -5 30 3 12 1 26 -5 30 -6 3 -9 11 -6 16 4 5 1 9 -6 9 -7 0 -9 10 -7
25 3 13 1 22 -3 19 -5 -3 -9 2 -9 11 0 9 -7 26 -15 39 -8 12 -16 43 -18 67 -1
25 -10 52 -19 63 -10 11 -18 26 -18 33 0 8 -7 10 -17 6 -16 -6 -16 -5 -4 10
10 13 11 20 2 31 -6 7 -9 20 -5 29 3 8 0 18 -6 22 -6 4 -8 16 -5 28 2 12 2 16
-1 9 -3 -6 -9 -10 -14 -7 -11 7 0 55 13 55 6 0 -6 16 -27 35 -26 23 -36 40
-32 51 4 9 1 23 -6 31 -9 11 -9 16 2 23 10 6 8 13 -9 31 -11 13 -19 30 -16 39
3 10 -5 26 -20 40 -17 16 -21 26 -14 31 7 4 8 12 3 20 -5 8 -10 23 -11 34 -6
49 -10 64 -26 89 -10 15 -15 31 -12 36 3 5 -3 19 -13 30 -11 12 -17 30 -15 43
3 14 -3 27 -16 36 -18 13 -18 17 -5 42 13 25 12 29 -4 38 -9 6 -13 11 -9 11 4
0 -3 12 -17 27 -18 19 -22 29 -14 34 9 6 8 11 -1 23 -7 9 -11 22 -8 29 3 7 -3
24 -13 37 -9 12 -15 31 -13 41 3 11 1 19 -5 19 -5 0 -13 17 -17 37 -4 20 -14
44 -24 53 -10 9 -16 28 -15 49 1 38 -13 85 -38 123 -12 18 -14 29 -7 34 7 4 2
15 -12 30 -13 14 -23 40 -26 66 -2 23 -10 52 -17 64 -13 18 -26 67 -28 99 0 6
-11 23 -25 39 -13 16 -22 35 -19 42 3 7 1 16 -4 19 -6 4 -10 17 -10 31 0 13
-13 38 -30 55 -16 17 -32 47 -36 65 -3 19 -10 31 -15 28 -9 -5 -11 0 -13 29
-1 6 -11 21 -22 32 -140 131 -272 229 -309 231 -16 1 -39 5 -49 9 -15 7 -17 5
-11 -5 5 -8 -7 -5 -29 8 -21 12 -42 20 -47 17 -5 -4 -9 -1 -9 4 0 6 -5 11 -11
11 -5 0 -7 -4 -4 -10 4 -7 -3 -7 -20 0 -15 6 -31 8 -36 5 -4 -3 -21 1 -37 9
-17 9 -34 11 -42 6 -8 -5 -22 -3 -34 6 -24 16 -40 19 -31 4 4 -6 -4 -6 -21 0
-18 7 -31 7 -37 1 -7 -7 -16 -7 -29 0 -12 6 -18 6 -18 0 0 -6 -17 -8 -42 -5
-75 9 -189 10 -194 2 -3 -5 -15 -1 -27 7 -12 8 -24 15 -27 14 -3 -1 -21 -5
-40 -10z m607 -3802 c3 9 10 10 22 3 10 -5 21 -6 25 -3 9 9 116 11 110 2 -2
-4 4 -5 15 -2 10 3 22 0 26 -7 5 -8 10 -8 21 1 10 8 18 8 27 0 10 -7 17 -7 24
0 8 8 20 6 44 -7 24 -14 33 -16 36 -6 4 9 12 7 32 -7 20 -14 31 -17 38 -10 8
8 18 6 36 -5 13 -9 31 -14 40 -10 8 3 27 -2 41 -11 14 -9 30 -14 36 -10 6 4
28 -5 49 -19 22 -15 45 -24 54 -20 9 3 32 -5 53 -20 25 -17 42 -22 48 -16 6 6
22 0 44 -17 19 -14 47 -27 62 -28 14 -1 59 -27 103 -59 42 -32 80 -55 86 -52
12 8 41 -3 41 -15 0 -4 -7 -5 -17 -2 -11 4 -14 3 -9 -6 5 -7 15 -10 23 -7 8 4
40 -14 76 -41 98 -75 199 -165 193 -170 -3 -3 -14 0 -23 7 -10 7 29 -33 87
-88 58 -56 98 -101 90 -102 -8 0 9 -24 40 -56 30 -30 47 -52 38 -48 -29 10
-21 -9 17 -40 22 -19 33 -36 30 -46 -3 -10 8 -29 30 -50 25 -24 31 -36 23 -41
-9 -6 -5 -16 16 -38 16 -16 25 -34 21 -41 -4 -6 3 -22 15 -35 12 -13 19 -28
16 -34 -4 -6 2 -21 14 -33 11 -12 18 -29 15 -37 -3 -8 4 -25 16 -38 13 -12 19
-26 15 -30 -4 -4 -11 -1 -16 7 -6 8 -10 10 -10 4 0 -5 9 -20 20 -32 11 -12 17
-28 14 -37 -4 -9 2 -25 15 -39 12 -13 19 -30 16 -38 -4 -9 -1 -19 5 -23 8 -5
8 -10 0 -20 -8 -9 -8 -15 0 -20 5 -3 7 -17 4 -31 -4 -15 -2 -24 5 -24 7 0 9
-9 6 -23 -4 -14 1 -30 14 -43 14 -16 16 -25 9 -32 -8 -8 -8 -15 1 -25 6 -8 9
-21 5 -30 -3 -8 0 -18 6 -22 8 -5 8 -10 0 -20 -7 -8 -8 -20 -4 -27 5 -7 7 -23
5 -35 -1 -14 3 -23 11 -23 10 0 9 -3 -2 -10 -12 -7 -12 -13 -4 -27 9 -14 8
-23 -4 -41 -8 -12 -12 -25 -8 -29 3 -3 6 -1 6 6 0 7 4 9 10 6 6 -4 4 -16 -6
-31 -12 -17 -13 -28 -6 -37 7 -8 7 -18 2 -27 -5 -9 -5 -19 2 -28 8 -9 8 -16 0
-24 -8 -8 -8 -15 -1 -24 7 -9 5 -20 -7 -39 -14 -22 -15 -28 -4 -35 11 -7 11
-11 1 -24 -10 -11 -10 -20 -3 -29 7 -8 6 -18 -4 -31 -19 -26 -18 -40 2 -32 15
6 15 4 0 -20 -10 -14 -15 -32 -12 -41 3 -8 -2 -29 -11 -45 -13 -23 -15 -32 -6
-35 9 -3 6 -14 -10 -34 -18 -25 -19 -31 -7 -39 12 -7 11 -13 -8 -33 -24 -26
-28 -43 -10 -49 7 -3 -1 -20 -22 -47 -28 -34 -32 -44 -20 -51 12 -7 11 -13 -8
-33 -12 -13 -22 -29 -22 -35 0 -7 -5 -12 -11 -12 -8 0 -7 -5 1 -15 11 -13 10
-20 -6 -38 -10 -12 -25 -33 -32 -45 -12 -22 -12 -23 10 -17 13 3 19 3 13 -2
-5 -4 -29 -32 -53 -60 -29 -36 -38 -53 -28 -53 25 0 19 -12 -29 -69 -25 -29
-45 -60 -45 -68 0 -13 3 -13 15 -3 31 26 13 -2 -58 -87 -106 -129 -140 -173
-131 -173 4 0 19 10 33 23 30 26 22 14 -43 -68 -81 -101 -115 -135 -129 -129
-8 3 -34 -17 -63 -50 -34 -39 -51 -52 -57 -43 -5 8 -7 7 -5 -4 2 -10 -26 -51
-62 -92 -67 -78 -101 -106 -79 -65 11 20 10 20 -10 5 -12 -8 -38 -33 -57 -56
-22 -25 -44 -41 -57 -41 -14 0 -39 -18 -65 -47 -29 -33 -45 -44 -49 -35 -4 10
-17 3 -44 -24 -30 -29 -42 -35 -51 -26 -8 8 -21 1 -50 -31 -33 -36 -38 -38
-32 -17 6 23 6 24 -12 10 -10 -8 -27 -25 -37 -38 -14 -17 -22 -20 -32 -12 -9
7 -20 3 -40 -16 -22 -20 -30 -23 -37 -12 -6 10 -14 6 -34 -16 -20 -23 -28 -26
-34 -15 -7 11 -14 9 -34 -10 -13 -13 -29 -20 -35 -16 -6 3 -25 -3 -41 -15 -26
-18 -29 -19 -23 -4 6 15 2 15 -24 -4 -23 -16 -33 -19 -36 -10 -3 10 -9 9 -23
-3 -33 -28 -44 -32 -37 -13 6 15 4 15 -20 -1 -14 -9 -31 -14 -37 -10 -6 4 -17
2 -24 -4 -7 -6 -21 -8 -31 -5 -10 4 -21 1 -26 -7 -8 -12 -10 -12 -18 0 -7 11
-13 10 -32 -8 -27 -25 -41 -27 -32 -5 5 14 3 15 -15 5 -12 -7 -22 -17 -22 -23
0 -7 -5 -6 -15 2 -12 10 -18 10 -29 1 -10 -9 -16 -9 -21 -1 -5 7 -11 8 -19 1
-7 -6 -21 -8 -33 -5 -11 3 -24 1 -28 -6 -5 -8 -11 -8 -22 1 -12 10 -16 10 -23
-1 -7 -11 -11 -11 -23 -1 -9 7 -18 8 -21 3 -8 -14 -83 -7 -102 8 -13 12 -17
11 -24 -1 -7 -11 -12 -11 -21 -2 -9 9 -16 10 -26 2 -9 -9 -17 -8 -29 2 -13 10
-17 10 -24 -1 -6 -10 -14 -8 -38 9 -17 12 -33 17 -36 12 -8 -12 -74 -5 -92 9
-7 7 -21 9 -30 6 -9 -4 -28 1 -41 9 -17 12 -28 13 -37 6 -9 -8 -19 -5 -35 10
-16 15 -26 18 -33 11 -8 -8 -19 -5 -40 9 -23 17 -32 18 -43 9 -8 -7 -15 -8
-15 -3 0 5 -12 16 -27 24 -16 8 -31 18 -35 24 -5 6 -11 6 -19 -2 -10 -10 -20
-6 -47 18 -19 17 -41 28 -49 25 -14 -6 -56 19 -97 56 -23 21 -33 23 -38 7 -2
-7 -53 29 -113 80 -101 83 -136 108 -120 81 13 -21 -10 -8 -65 39 -42 34 -56
51 -48 59 8 8 5 9 -11 5 -13 -3 -21 -1 -21 6 0 7 5 9 11 5 7 -4 10 -1 7 7 -3
8 -45 50 -95 94 -50 44 -91 85 -91 90 1 28 -6 37 -52 81 -30 28 -48 54 -45 62
3 8 -10 27 -30 45 -26 22 -33 36 -29 50 4 14 -2 26 -22 43 -16 13 -23 23 -16
24 21 0 13 20 -22 50 -22 20 -32 37 -29 48 2 10 -5 26 -16 36 -16 15 -18 22
-10 33 9 10 6 18 -15 34 -18 14 -25 27 -21 39 3 10 1 21 -4 24 -6 4 -8 13 -4
21 3 9 -2 27 -12 41 -9 14 -14 28 -11 31 3 4 1 12 -5 19 -6 8 -9 20 -6 28 3 7
-3 23 -14 34 -10 12 -16 28 -13 37 4 8 1 22 -5 29 -9 10 -9 16 -1 21 8 5 8 11
0 20 -7 8 -9 19 -5 25 4 6 1 17 -5 25 -6 8 -9 19 -5 25 4 6 0 22 -9 35 -12 18
-13 31 -6 49 7 20 6 24 -5 20 -12 -5 -12 -1 1 26 9 17 13 34 10 37 -3 4 -6 1
-6 -5 0 -7 -5 -12 -10 -12 -6 0 -8 11 -4 25 4 16 2 25 -5 25 -8 0 -7 8 3 22
21 29 20 39 -1 32 -11 -4 -14 -3 -7 3 15 12 24 52 13 59 -6 3 -5 12 2 21 8 9
9 17 3 21 -11 8 -12 77 -1 88 4 4 7 14 7 23 0 14 -2 14 -10 1 -5 -8 -10 -10
-10 -5 0 6 7 21 16 34 10 13 13 26 7 30 -12 8 -8 80 6 94 14 14 15 40 1 32
-14 -9 -12 5 5 35 19 34 19 45 -2 29 -12 -10 -10 -4 5 18 12 17 22 39 22 50 0
15 -2 16 -10 3 -5 -8 -10 -11 -10 -7 0 4 8 19 17 33 12 19 13 28 4 33 -9 6 -7
14 6 32 28 38 48 77 32 62 -28 -27 -27 -11 1 34 19 30 26 49 19 53 -7 5 -1 21
15 45 30 43 34 64 9 44 -15 -13 -15 -12 -5 8 7 12 17 25 22 28 6 3 17 20 26
37 15 28 15 30 0 25 -22 -9 -21 -8 24 53 32 43 38 56 25 60 -12 4 -4 19 35 65
53 64 60 78 33 68 -22 -9 3 28 106 156 97 119 99 122 83 128 -12 5 24 54 110
150 40 44 45 46 27 10 -15 -32 114 108 192 207 14 17 27 25 37 21 11 -4 35 14
75 57 33 35 54 55 47 46 -26 -37 6 -16 62 39 32 32 58 53 58 47 0 -5 -5 -15
-12 -22 -7 -7 -8 -12 -3 -12 4 0 30 24 58 53 27 28 47 44 43 35 -8 -27 7 -22
39 12 18 19 35 28 46 25 11 -4 24 4 39 25 16 23 27 29 44 24 17 -4 27 1 40 21
13 20 21 24 29 16 8 -8 18 -4 38 15 18 18 29 22 34 14 5 -8 17 -3 38 17 20 19
28 22 24 11 -8 -24 6 -23 28 2 11 12 26 18 35 15 10 -3 23 1 30 10 7 9 21 13
35 9 15 -4 24 0 29 11 5 14 9 15 21 5 11 -9 18 -8 36 8 11 11 28 18 35 15 8
-3 21 0 28 6 10 9 16 9 21 1 5 -8 11 -8 20 0 8 7 19 9 25 5 6 -4 17 -1 25 5 8
6 19 9 24 5 6 -3 21 1 34 10 13 8 31 13 40 10 8 -4 18 -2 22 4 3 6 17 8 31 5
16 -4 24 -2 24 6 0 10 3 10 15 0 8 -6 20 -8 27 -4 7 5 32 8 55 9 23 0 44 3 48
7 4 3 20 -1 37 -10 23 -13 32 -14 35 -5z m-2187 -87 c0 -5 -2 -10 -4 -10 -3 0
-8 5 -11 10 -3 6 -1 10 4 10 6 0 11 -4 11 -10z m4540 -980 c0 -5 -5 -10 -11
-10 -5 0 -7 5 -4 10 3 6 8 10 11 10 2 0 4 -4 4 -10z m-430 -520 c0 -5 -4 -10
-10 -10 -5 0 -10 5 -10 10 0 6 5 10 10 10 6 0 10 -4 10 -10z m-4210 -1090 c0
-5 -5 -10 -11 -10 -5 0 -7 5 -4 10 3 6 8 10 11 10 2 0 4 -4 4 -10z m4090 -90
c0 -5 -4 -10 -10 -10 -5 0 -10 5 -10 10 0 6 5 10 10 10 6 0 10 -4 10 -10z
m-538 -844 c-16 -19 -32 -32 -35 -29 -3 3 8 20 25 39 41 44 50 35 10 -10z
m-3157 6 c-3 -3 -11 0 -18 7 -9 10 -8 11 6 5 10 -3 15 -9 12 -12z m3115 -52
c0 -5 -5 -10 -11 -10 -5 0 -7 5 -4 10 3 6 8 10 11 10 2 0 4 -4 4 -10z"/>
<path d="M6715 7040 c-3 -5 -1 -10 4 -10 6 0 11 5 11 10 0 6 -2 10 -4 10 -3 0
-8 -4 -11 -10z"/>
<path d="M4684 6203 c-16 -21 -37 -46 -48 -56 -11 -9 -17 -20 -13 -23 5 -6 56
46 86 88 26 37 3 29 -25 -9z"/>
<path d="M6733 5138 c-18 -18 -36 -29 -40 -24 -4 4 -1 11 7 16 8 6 11 10 5 10
-5 0 -31 -21 -58 -47 -45 -45 -48 -46 -37 -18 9 27 4 24 -43 -25 -49 -51 -214
-249 -231 -277 -5 -9 -2 -11 8 -7 22 9 19 -6 -8 -40 -22 -27 -24 -27 -37 -9
-18 24 -256 224 -286 240 -13 6 -23 8 -23 2 0 -5 5 -9 10 -9 6 0 10 -5 10 -11
0 -6 -17 1 -37 17 -21 16 -48 27 -62 27 -15 -1 -20 1 -13 4 21 8 13 20 -15 21
-16 0 -47 2 -71 5 -23 2 -45 0 -48 -5 -3 -5 -13 -3 -22 4 -12 10 -16 10 -19 1
-3 -8 -14 -11 -27 -7 -14 3 -27 -1 -35 -10 -15 -17 -36 -22 -26 -6 14 23 -12
7 -52 -32 -24 -23 -43 -38 -43 -32 0 5 5 15 12 22 7 7 8 12 2 12 -9 0 -126
-124 -132 -141 -2 -5 -8 -9 -13 -9 -6 0 -7 5 -4 10 3 6 2 10 -3 10 -5 0 -47
-42 -93 -94 -83 -92 -107 -113 -74 -62 26 39 10 31 -33 -16 -86 -95 -114 -122
-108 -105 5 15 3 16 -14 7 -11 -6 -27 -22 -36 -36 -11 -16 -23 -23 -34 -19
-11 3 -30 -9 -56 -37 -22 -24 -48 -50 -59 -58 -16 -11 -17 -11 -7 0 6 8 12 20
12 28 0 8 -18 -4 -42 -27 -29 -27 -45 -37 -49 -29 -6 9 -13 7 -28 -6 -20 -18
-21 -18 -21 -1 0 17 -3 16 -25 -5 -14 -13 -25 -19 -25 -14 0 6 -16 10 -35 11
-19 1 -35 -3 -35 -8 0 -5 -7 -9 -15 -9 -8 0 -15 5 -15 11 0 8 -4 9 -13 0 -11
-8 -28 0 -76 39 -34 28 -66 50 -71 50 -5 0 -15 -9 -23 -20 -8 -11 -18 -17 -22
-12 -5 4 4 -10 19 -30 16 -21 32 -38 36 -38 4 0 15 -12 25 -26 9 -15 12 -23 5
-19 -22 14 6 -28 44 -64 33 -32 49 -60 26 -46 -23 14 -8 -8 25 -36 28 -25 34
-36 29 -56 -5 -19 -3 -24 7 -21 8 3 13 11 11 18 -3 14 78 -52 123 -100 26 -28
27 -31 7 -21 -23 12 -23 12 -7 -13 14 -20 23 -25 44 -20 18 4 22 3 12 -4 -11
-8 -7 -16 20 -41 33 -30 67 -42 53 -19 -4 7 -3 8 4 4 6 -4 9 -13 5 -21 -3 -10
1 -15 12 -15 10 0 13 4 8 13 -9 15 67 -44 98 -77 18 -18 27 -21 39 -14 17 11
32 2 82 -45 12 -12 26 -15 43 -11 16 4 25 2 25 -5 0 -8 5 -9 19 -1 25 13 41
13 21 0 -12 -8 -9 -10 11 -10 14 0 34 -9 44 -20 17 -19 19 -19 32 -2 10 12 16
14 19 5 8 -18 27 -16 21 1 -4 10 0 12 14 9 10 -3 19 -10 19 -15 0 -7 4 -7 13
-1 6 6 32 8 57 6 73 -7 92 -6 102 9 7 10 11 10 15 1 3 -9 15 -5 39 13 19 15
34 21 34 15 0 -7 17 1 38 16 20 15 31 20 23 10 -17 -21 -3 -22 27 -1 12 8 26
13 30 10 5 -3 24 10 43 30 20 20 39 32 48 29 9 -3 33 12 59 37 25 24 42 35 39
26 -10 -30 16 -10 74 55 103 115 120 132 111 112 -6 -11 -20 -29 -31 -39 -12
-11 -21 -24 -21 -30 0 -6 18 9 40 34 52 58 120 151 91 126 -40 -36 -21 -4 50
86 39 49 69 91 66 95 -3 3 -13 -2 -22 -11 -29 -28 -28 -17 1 21 18 24 24 38
16 41 -20 6 -13 22 9 22 15 0 19 -5 15 -15 -3 -10 1 -15 12 -15 15 0 15 -2 2
-10 -13 -9 -11 -13 9 -30 64 -54 152 -140 144 -140 -6 0 -18 9 -28 20 -10 11
-23 20 -29 20 -6 0 2 -12 18 -26 16 -14 35 -23 44 -19 8 3 20 -1 26 -9 21 -27
191 -147 194 -137 2 5 26 -5 54 -22 35 -22 53 -28 55 -20 3 9 13 6 33 -8 15
-12 33 -18 38 -15 6 4 26 -3 44 -14 36 -22 53 -26 43 -10 -3 6 -1 10 4 10 6 0
11 -5 11 -10 0 -7 6 -7 20 0 16 9 18 8 14 -5 -7 -18 12 -21 20 -2 3 9 8 7 19
-5 13 -16 15 -16 31 0 17 16 18 16 11 -8 -7 -20 -5 -23 6 -14 8 6 35 10 62 9
29 -1 51 3 58 12 12 14 34 18 25 5 -6 -10 54 -9 71 1 6 4 13 1 16 -5 3 -9 11
-6 28 9 17 15 29 19 39 13 11 -7 23 -1 45 18 16 15 24 20 17 10 -25 -32 5 -27
38 7 22 23 40 33 51 30 11 -4 29 7 50 29 24 26 35 32 41 23 8 -12 24 2 128
119 43 47 82 93 165 193 23 28 35 51 32 63 -3 11 9 37 32 66 45 57 57 84 34
75 -13 -5 -11 2 7 28 13 19 27 36 30 39 4 3 10 14 14 24 7 19 6 19 -14 1 -29
-26 -25 -12 10 37 34 47 38 60 13 51 -16 -6 -17 -5 -3 13 8 10 23 29 34 42 17
19 18 25 7 32 -11 6 -10 14 7 42 l21 33 -26 23 c-14 13 -26 21 -27 20 0 -2
-12 -15 -25 -30 -18 -21 -21 -31 -13 -41 9 -11 6 -19 -16 -38 -25 -22 -25 -22
-8 -1 33 38 10 35 -34 -4 -35 -32 -50 -38 -85 -39 -24 0 -47 -3 -51 -7 -4 -5
-13 -3 -21 3 -10 9 -17 8 -28 -1 -9 -7 -19 -10 -22 -6 -4 4 -1 11 7 16 8 6 11
10 5 10 -5 -1 -18 -7 -29 -15 -16 -12 -23 -12 -49 1 -23 12 -31 13 -37 3 -6
-9 -15 -7 -36 10 -15 12 -30 18 -33 15 -3 -4 0 -9 7 -11 6 -3 10 -9 6 -14 -3
-5 -21 3 -40 17 -19 15 -48 28 -66 30 -17 2 -37 9 -44 15 -10 8 -18 9 -27 0
-11 -8 -18 -6 -33 10 -11 12 -26 18 -38 15 -13 -3 -41 9 -79 34 -62 42 -72 47
-62 30 11 -18 -4 -11 -58 25 -56 38 -77 45 -56 18 17 -21 11 -17 -81 46 -52
36 -60 39 -40 16 31 -34 12 -26 -65 29 -32 23 -52 32 -56 24 -4 -6 -12 -7 -20
-2 -8 5 -25 10 -39 11 -14 1 -45 4 -70 7 -26 2 -51 -1 -59 -7 -11 -10 -13 -8
-7 11 10 29 7 28 -31 -10z m-1732 -656 c-5 -10 -18 -25 -27 -33 -16 -12 -16
-10 1 19 20 33 43 46 26 14z m1209 -376 c0 -2 -7 -7 -16 -10 -8 -3 -12 -2 -9
4 6 10 25 14 25 6z"/>
<path d="M6476 4983 c-6 -14 -5 -15 5 -6 7 7 10 15 7 18 -3 3 -9 -2 -12 -12z"/>
<path d="M7430 4920 c0 -5 5 -10 11 -10 5 0 7 5 4 10 -3 6 -8 10 -11 10 -2 0
-4 -4 -4 -10z"/>
<path d="M8320 4699 c0 -5 5 -7 10 -4 6 3 10 8 10 11 0 2 -4 4 -10 4 -5 0 -10
-5 -10 -11z"/>
<path d="M4810 4400 c0 -5 5 -10 10 -10 6 0 10 5 10 10 0 6 -4 10 -10 10 -5 0
-10 -4 -10 -10z"/>
<path d="M4260 4315 c0 -8 5 -15 10 -15 6 0 10 7 10 15 0 8 -4 15 -10 15 -5 0
-10 -7 -10 -15z"/>
<path d="M8140 4309 c0 -5 5 -7 10 -4 6 3 10 8 10 11 0 2 -4 4 -10 4 -5 0 -10
-5 -10 -11z"/>
<path d="M7886 4234 c-10 -14 -15 -28 -13 -31 3 -2 13 7 23 21 9 15 14 29 12
32 -3 2 -13 -7 -22 -22z"/>
<path d="M4542 4084 c10 -10 20 -15 24 -12 3 4 -5 12 -18 18 -22 12 -22 12 -6
-6z"/>
<path d="M4654 4034 c-18 -14 -18 -15 4 -4 12 6 22 13 22 15 0 8 -5 6 -26 -11z"/>
<path d="M4716 4007 c3 -10 9 -15 12 -12 3 3 0 11 -7 18 -10 9 -11 8 -5 -6z"/>
<path d="M4271 3994 c-18 -21 -6 -30 14 -11 8 9 15 18 15 21 0 11 -15 5 -29
-10z"/>
<path d="M4300 3915 c-8 -9 -8 -15 -2 -15 12 0 26 19 19 26 -2 2 -10 -2 -17
-11z"/>
<path d="M4830 3760 c0 -5 5 -10 11 -10 5 0 7 5 4 10 -3 6 -8 10 -11 10 -2 0
-4 -4 -4 -10z"/>
<path d="M4827 3184 c-3 -3 1 -13 9 -21 8 -9 18 -12 21 -9 4 4 0 13 -8 21 -8
9 -18 13 -22 9z"/>
<path d="M4480 6887 c0 -13 3 -17 8 -11 4 6 14 13 22 16 10 3 8 6 -8 10 -18 5
-22 2 -22 -15z"/>
<path d="M4530 6894 c0 -9 5 -14 12 -12 18 6 21 28 4 28 -9 0 -16 -7 -16 -16z"/>
<path d="M11925 5069 c-38 -45 -81 -93 -94 -108 -41 -44 -263 -290 -321 -355
-131 -149 -375 -421 -380 -426 -5 -4 -282 -315 -361 -405 -119 -135 -248 -280
-524 -590 -176 -197 -333 -375 -350 -394 -16 -20 -70 -81 -120 -136 -50 -55
-102 -113 -115 -129 -14 -16 -77 -88 -140 -160 -64 -72 -217 -246 -340 -385
-202 -229 -531 -602 -621 -705 -110 -126 -279 -314 -298 -330 -11 -11 -21 -25
-21 -32 0 -7 -6 -17 -13 -21 -7 -4 -46 -46 -87 -93 -40 -47 -76 -87 -80 -90
-7 -6 -311 -356 -355 -409 -16 -20 -68 -79 -114 -131 -136 -153 -141 -159
-141 -165 0 -3 1024 -5 2275 -5 l2275 0 0 2575 c0 1416 -1 2575 -2 2575 -2 0
-34 -37 -73 -81z"/>
<path d="M0 2270 l0 -2270 2597 0 c2212 0 2595 2 2583 14 -8 7 -54 47 -102 89
-48 41 -106 93 -130 115 -58 53 -470 418 -704 622 -103 91 -211 186 -239 211
-27 25 -81 72 -120 105 -38 33 -83 71 -100 86 -16 14 -73 63 -125 108 -52 46
-105 92 -116 104 -12 11 -32 30 -45 41 -118 99 -148 127 -143 139 3 8 1 17 -5
21 -7 4 -8 -1 -4 -12 5 -13 -3 -9 -29 12 -19 17 -45 38 -57 48 -12 10 -19 23
-15 29 5 7 3 8 -5 4 -15 -10 -51 21 -45 38 3 7 -2 19 -11 26 -14 11 -14 15 -1
29 14 15 13 17 -8 16 -14 0 -28 -4 -32 -8 -5 -4 0 -5 10 -1 14 5 17 3 14 -7
-3 -8 1 -22 10 -32 8 -9 13 -19 10 -22 -5 -5 -42 24 -116 93 -19 17 -39 32
-44 32 -6 0 -7 7 -4 16 3 9 2 12 -5 9 -5 -4 -32 13 -58 37 -27 23 -70 61 -97
83 -26 22 -75 66 -108 97 -33 32 -62 58 -64 58 -12 0 -141 123 -137 131 8 13
31 0 44 -24 6 -12 9 -14 7 -4 -8 26 19 21 56 -12 28 -25 30 -31 19 -45 -15
-18 -1 -22 17 -4 16 16 16 -4 0 -21 -11 -11 -10 -12 1 -6 7 4 16 3 20 -2 3 -6
20 -14 37 -17 24 -5 33 -3 38 9 3 9 2 13 -4 10 -5 -3 -7 0 -4 8 7 18 -40 56
-78 64 -16 3 -25 10 -21 16 3 5 2 7 -4 4 -5 -3 -20 1 -34 11 -13 9 -32 16 -43
17 -10 0 -20 8 -22 17 -1 11 3 15 13 11 12 -5 12 -7 1 -14 -9 -6 -5 -9 12 -8
43 0 84 -13 98 -33 10 -13 24 -18 55 -16 l42 1 -42 4 c-26 3 -43 9 -43 17 0
14 -61 46 -88 46 -15 0 -15 2 -2 10 12 8 11 10 -5 8 -11 0 -29 0 -40 1 -18 3
-17 4 4 10 14 4 26 12 28 18 6 17 -45 25 -82 12 -28 -11 -31 -15 -22 -30 8
-13 15 -15 29 -8 21 11 24 -1 6 -20 -11 -12 -9 -13 7 -7 19 7 19 6 3 -10 -16
-16 -21 -13 -90 47 -40 35 -75 66 -78 69 -3 3 -49 43 -103 89 -54 46 -94 88
-90 93 3 7 1 8 -5 4 -14 -8 -184 142 -176 155 3 5 14 7 23 4 11 -3 24 2 32 12
13 16 12 17 -3 5 -9 -8 -22 -11 -28 -7 -6 4 -17 1 -25 -5 -12 -10 -42 12 -167
122 -84 74 -186 163 -227 198 -64 55 -72 65 -58 75 9 7 14 15 10 18 -3 4 -12
-1 -19 -11 -12 -16 -14 -15 -41 9 -15 14 -68 61 -118 104 -49 43 -119 104
-155 136 -36 31 -81 70 -100 87 -220 190 -269 235 -264 244 4 7 2 8 -5 4 -7
-5 -29 8 -54 31 -24 21 -58 51 -75 66 -18 15 -30 33 -26 39 4 7 3 8 -4 4 -9
-6 -136 91 -162 123 -3 4 -52 47 -110 96 -58 49 -141 121 -185 160 -44 39 -91
79 -104 87 -13 9 -52 44 -87 78 l-64 61 0 -2271z m2550 135 c-7 -8 -18 -15
-24 -15 -6 0 -2 7 8 15 25 19 32 19 16 0z m205 -174 c3 -5 0 -13 -6 -17 -7 -4
-9 -3 -5 4 3 5 0 13 -6 15 -9 4 -10 6 -1 6 6 1 14 -3 18 -8z"/>
<path d="M490 4480 c0 -5 5 -10 10 -10 6 0 10 5 10 10 0 6 -4 10 -10 10 -5 0
-10 -4 -10 -10z"/>
<path d="M493 4173 c9 -2 23 -2 30 0 6 3 -1 5 -18 5 -16 0 -22 -2 -12 -5z"/>
<path d="M530 4150 c0 -5 5 -10 11 -10 5 0 7 5 4 10 -3 6 -8 10 -11 10 -2 0
-4 -4 -4 -10z"/>
<path d="M505 4135 c11 -9 19 -21 17 -26 -1 -6 2 -8 8 -4 13 8 4 22 -23 35
-22 11 -22 11 -2 -5z"/>
<path d="M550 4111 c0 -10 19 -25 25 -20 1 2 -3 10 -11 17 -8 7 -14 8 -14 3z"/>
<path d="M615 4080 c3 -5 8 -10 11 -10 2 0 4 5 4 10 0 6 -5 10 -11 10 -5 0 -7
-4 -4 -10z"/>
<path d="M860 3850 c-9 -6 -10 -10 -3 -10 6 0 15 5 18 10 8 12 4 12 -15 0z"/>
<path d="M1241 3501 c-11 -7 -10 -11 7 -20 14 -7 23 -8 27 -1 4 6 3 10 -2 9
-20 -3 -27 2 -13 11 8 5 11 10 5 10 -5 0 -16 -4 -24 -9z"/>
<path d="M1305 3440 c-3 -6 1 -7 9 -4 18 7 21 14 7 14 -6 0 -13 -4 -16 -10z"/>
<path d="M1326 3422 c-2 -4 4 -8 14 -8 10 0 16 4 14 8 -3 4 -9 8 -14 8 -5 0
-11 -4 -14 -8z"/>
<path d="M1410 3370 c-9 -6 -10 -10 -3 -10 6 0 15 5 18 10 8 12 4 12 -15 0z"/>
<path d="M1656 3135 c-3 -8 0 -17 6 -21 6 -4 8 -3 4 4 -3 5 -1 12 6 14 8 3 9
6 1 11 -6 4 -13 0 -17 -8z"/>
<path d="M1720 3140 c12 -8 12 -10 1 -10 -8 0 -12 -2 -9 -5 3 -3 13 -2 22 1
14 5 15 9 4 15 -7 5 -17 9 -23 9 -5 0 -3 -5 5 -10z"/>
<path d="M1725 3080 c-2 -3 5 -6 15 -7 11 -1 22 2 24 5 3 4 -4 8 -15 8 -11 0
-22 -3 -24 -6z"/>
<path d="M1746 3048 c3 -5 10 -6 15 -3 13 9 11 12 -6 12 -8 0 -12 -4 -9 -9z"/>
<path d="M1784 3041 c4 -5 0 -11 -6 -14 -7 -2 3 -12 22 -22 19 -9 43 -24 52
-32 10 -9 25 -12 37 -8 12 4 21 2 21 -4 0 -6 -5 -11 -12 -11 -6 0 -9 -2 -6 -5
9 -9 38 6 38 20 0 8 -10 12 -27 10 -17 -2 -46 8 -71 22 -34 20 -40 28 -31 39
9 11 8 14 -5 14 -10 0 -15 -4 -12 -9z"/>
<path d="M2705 3040 c3 -5 8 -10 11 -10 2 0 4 5 4 10 0 6 -5 10 -11 10 -5 0
-7 -4 -4 -10z"/>
<path d="M1820 3036 c0 -2 8 -10 18 -17 15 -13 16 -12 3 4 -13 16 -21 21 -21
13z"/>
<path d="M1820 2976 c0 -2 8 -10 18 -17 15 -13 16 -12 3 4 -13 16 -21 21 -21
13z"/>
<path d="M1902 2903 c26 -28 26 -28 24 -1 -1 15 -8 22 -24 23 l-22 2 22 -24z"/>
<path d="M1980 2870 c0 -13 26 -19 41 -9 8 5 10 9 4 10 -5 0 -18 2 -27 4 -10
2 -18 0 -18 -5z"/>
<path d="M2045 2840 c-3 -5 -1 -10 4 -10 6 0 11 5 11 10 0 6 -2 10 -4 10 -3 0
-8 -4 -11 -10z"/>
<path d="M2059 2783 c-8 -9 -9 -14 -4 -11 15 8 57 -10 50 -22 -3 -6 1 -13 9
-16 9 -3 16 -12 16 -19 0 -18 6 -21 55 -29 31 -5 37 -4 25 5 -13 9 -12 10 3 5
9 -3 17 -1 17 4 0 6 -6 10 -13 10 -7 0 -25 12 -42 27 -19 18 -27 22 -22 10 3
-9 2 -17 -3 -17 -6 0 -10 7 -10 15 0 9 -14 22 -30 29 -17 7 -27 15 -23 19 3 4
2 7 -4 7 -6 0 -17 -8 -24 -17z m101 -73 c0 -5 -5 -10 -11 -10 -5 0 -7 5 -4 10
3 6 8 10 11 10 2 0 4 -4 4 -10z"/>
<path d="M2225 2680 c-12 -13 -14 -20 -5 -20 10 0 10 -3 1 -14 -8 -10 -9 -16
-1 -21 6 -4 9 -1 8 6 -2 7 8 18 20 25 15 7 20 14 13 19 -6 3 -9 11 -6 16 11
17 -12 9 -30 -11z"/>
<path d="M2295 2630 c-3 -5 -13 -7 -23 -3 -10 3 -5 -5 11 -20 16 -14 27 -32
25 -41 -2 -8 0 -14 4 -13 3 1 18 -9 32 -22 16 -15 26 -19 26 -11 0 7 -8 19
-17 26 -17 12 -17 13 -1 14 9 0 21 -7 26 -16 6 -11 11 -13 16 -5 4 6 1 14 -7
17 -9 3 -13 14 -10 27 4 20 3 20 -9 5 -9 -11 -19 -14 -28 -8 -8 5 -11 12 -8
16 9 8 -9 44 -22 44 -5 0 -11 -4 -15 -10z"/>
<path d="M2385 2620 c-3 -5 -1 -10 4 -10 6 0 11 5 11 10 0 6 -2 10 -4 10 -3 0
-8 -4 -11 -10z"/>
<path d="M2504 2544 c3 -9 6 -18 6 -20 0 -2 5 -4 10 -4 6 0 10 9 10 20 0 12
-7 20 -16 20 -11 0 -14 -5 -10 -16z"/>
<path d="M2390 2511 c0 -6 5 -13 10 -16 6 -4 8 -10 5 -15 -3 -5 13 -1 35 7 22
9 39 18 36 20 -2 2 -15 -1 -30 -7 -29 -11 -50 -5 -41 11 4 5 1 9 -4 9 -6 0
-11 -4 -11 -9z"/>
<path d="M2545 2500 c4 -6 1 -17 -5 -25 -10 -12 -10 -15 1 -15 11 0 11 -3 -1
-11 -12 -9 -12 -10 -1 -7 18 5 27 68 11 68 -6 0 -8 -5 -5 -10z"/>
<path d="M2442 2474 c-22 -15 -22 -17 -6 -35 9 -10 22 -19 28 -18 6 0 6 3 -1
6 -15 6 -17 23 -3 23 5 0 13 -13 17 -29 l8 -29 19 26 c16 21 17 24 3 19 -11
-4 -14 -2 -10 9 3 10 -2 14 -18 15 -13 0 -18 3 -11 6 13 5 17 23 4 23 -4 0
-18 -7 -30 -16z"/>
<path d="M7045 2370 c3 -5 8 -10 11 -10 2 0 4 5 4 10 0 6 -5 10 -11 10 -5 0
-7 -4 -4 -10z"/>
<path d="M2648 2263 c6 -2 10 -9 7 -14 -4 -5 1 -6 9 -3 20 8 11 24 -12 23 -11
0 -12 -2 -4 -6z"/>
<path d="M2801 2244 c0 -11 3 -14 6 -6 3 7 2 16 -1 19 -3 4 -6 -2 -5 -13z"/>
<path d="M2830 2180 c0 -5 7 -10 16 -10 8 0 12 5 9 10 -3 6 -10 10 -16 10 -5
0 -9 -4 -9 -10z"/>
<path d="M2755 2171 c-2 -4 4 -7 13 -7 9 -1 23 -3 31 -5 7 -2 15 1 18 8 4 12
-54 16 -62 4z"/>
<path d="M2777 2139 c7 -7 15 -10 18 -7 3 3 -2 9 -12 12 -14 6 -15 5 -6 -5z"/>
<path d="M2820 2130 c0 -22 8 -25 30 -9 13 9 12 10 -2 5 -12 -3 -15 -1 -11 10
3 7 0 14 -6 14 -6 0 -11 -9 -11 -20z"/>
<path d="M2859 2110 c-15 -16 -15 -19 0 -32 16 -13 17 -11 18 19 1 18 0 33 0
32 -1 0 -9 -9 -18 -19z"/>
<path d="M2943 2113 c-15 -5 -17 -43 -3 -43 6 0 10 8 11 18 0 14 2 14 8 -3 11
-28 -15 -40 -56 -26 -1 1 2 12 7 26 7 19 6 25 -4 25 -20 0 -27 -12 -15 -27 6
-7 8 -13 4 -13 -5 0 0 -9 9 -19 17 -19 20 -19 52 -3 19 8 31 18 26 21 -4 3
-12 16 -17 27 -6 12 -16 19 -22 17z"/>
<path d="M3055 2034 c-9 -15 -14 -15 -33 -3 -19 12 -24 12 -32 0 -5 -9 -5 -22
1 -33 7 -12 6 -18 -1 -18 -6 0 -8 -5 -4 -12 5 -8 11 -4 18 11 7 17 6 25 -3 31
-11 6 -11 9 0 16 7 4 14 3 17 -4 2 -7 15 -12 28 -12 17 0 24 6 24 20 0 24 -2
25 -15 4z"/>
<path d="M2925 2010 c3 -5 15 -15 26 -20 15 -9 19 -7 19 5 0 9 -4 13 -10 10
-5 -3 -10 -1 -10 4 0 6 -7 11 -16 11 -8 0 -12 -4 -9 -10z"/>
<path d="M3021 1984 c0 -11 6 -29 14 -40 15 -19 15 -19 9 1 -6 16 -4 18 6 8
18 -16 44 -5 29 13 -8 10 -16 11 -29 4 -15 -8 -19 -6 -23 13 -4 20 -4 20 -6 1z"/>
<path d="M3067 1925 c-8 -8 -18 -11 -22 -7 -5 4 -5 1 -1 -6 4 -7 16 -10 26 -7
11 4 26 -2 37 -13 21 -23 54 -31 69 -18 17 16 -6 33 -38 28 -17 -3 -28 0 -28
7 0 7 5 9 13 5 8 -5 8 -2 -2 9 -17 21 -35 22 -54 2z"/>
<path d="M3228 1833 c7 -3 16 -2 19 1 4 3 -2 6 -13 5 -11 0 -14 -3 -6 -6z"/>
<path d="M3235 1790 c-3 -5 0 -10 7 -10 10 0 9 -3 -2 -11 -12 -9 -12 -10 4 -5
10 4 26 1 35 -6 9 -7 5 0 -8 15 -28 31 -28 31 -36 17z"/>
<path d="M3265 1730 c-3 -6 1 -7 9 -4 18 7 21 14 7 14 -6 0 -13 -4 -16 -10z"/>
<path d="M3335 1680 c27 -12 43 -12 25 0 -8 5 -22 9 -30 9 -10 0 -8 -3 5 -9z"/>
</g>
</svg>
